<?xml version="1.0" encoding="UTF-8" standalone="no"?>
<!-- Created with Inkscape (http://www.inkscape.org/) -->

<svg
   xmlns:dc="http://purl.org/dc/elements/1.1/"
   xmlns:cc="http://creativecommons.org/ns#"
   xmlns:rdf="http://www.w3.org/1999/02/22-rdf-syntax-ns#"
   xmlns:svg="http://www.w3.org/2000/svg"
   xmlns="http://www.w3.org/2000/svg"
   xmlns:sodipodi="http://sodipodi.sourceforge.net/DTD/sodipodi-0.dtd"
   xmlns:inkscape="http://www.inkscape.org/namespaces/inkscape"
   width="96"
   height="96"
   id="svg2"
   version="1.1"
   inkscape:version="0.48.5 r10040"
   sodipodi:docname="add_exercise.svg"
   inkscape:export-filename="F:\Workspaces\HIITMe\HIITMe\add_exercise.png"
   inkscape:export-xdpi="90"
   inkscape:export-ydpi="90">
  <defs
     id="defs4" />
  <sodipodi:namedview
     id="base"
     pagecolor="#ffffff"
     bordercolor="#666666"
     borderopacity="1.0"
     inkscape:pageopacity="0.0"
     inkscape:pageshadow="2"
     inkscape:zoom="5.6"
     inkscape:cx="63.28447"
     inkscape:cy="52.499709"
     inkscape:document-units="px"
     inkscape:current-layer="layer1"
     showgrid="false"
     inkscape:window-width="1280"
     inkscape:window-height="1002"
     inkscape:window-x="-8"
     inkscape:window-y="48"
     inkscape:window-maximized="1" />
  <metadata
     id="metadata7">
    <rdf:RDF>
      <cc:Work
         rdf:about="">
        <dc:format>image/svg+xml</dc:format>
        <dc:type
           rdf:resource="http://purl.org/dc/dcmitype/StillImage" />
        <dc:title></dc:title>
      </cc:Work>
    </rdf:RDF>
  </metadata>
  <g
     inkscape:label="Layer 1"
     inkscape:groupmode="layer"
     id="layer1"
     transform="translate(0,-956.36218)">
    <g
       style="display:block"
       id="g3037"
       transform="matrix(1.8582177,0,0,1.8582177,56.279798,951.75018)">
      <g
         id="add">
        <path
           id="path3029"
           d="m 19,13 h -6 v 6 H 11 V 13 H 5 v -2 h 6 V 5 h 2 v 6 h 6 v 2 z"
           inkscape:connector-curvature="0"
           style="stroke:#2196f3;stroke-opacity:1;fill:#2196f3;fill-opacity:1;stroke-width:1.68171899;stroke-miterlimit:4;stroke-dasharray:none" />
      </g>
    </g>
    <g
       id="g3123"
       transform="matrix(0.19720732,0,0,0.19720732,-2.4611151,961.00008)">
      <g
         id="Guides_For_Artboard">
</g>
      <g
         id="_x30_">
</g>
      <g
         id="_x31_">
</g>
      <g
         id="_x32_">
</g>
      <g
         id="_x33_">
</g>
      <g
         id="_x34_">
</g>
      <g
         id="_x35_">
</g>
      <g
         id="_x36_">
</g>
      <g
         id="_x37_">
</g>
      <g
         id="_x38_">
</g>
      <g
         id="_x39_">
</g>
      <g
         id="_x31_0">
</g>
      <g
         id="_x31_1">
</g>
      <g
         id="_x31_2">
</g>
      <g
         id="_x31_3">
</g>
      <g
         id="_x31_4">
</g>
      <g
         id="_x31_5">
</g>
      <g
         id="_x31_6">
</g>
      <g
         id="_x31_7">
</g>
      <g
         id="_x31_8">
</g>
      <g
         id="_x31_9">
</g>
      <g
         id="_x32_0">
</g>
      <g
         id="_x32_1">
</g>
      <g
         id="_x32_2">
</g>
      <g
         id="_x32_3">
</g>
      <g
         id="_x32_4">
	<path
   id="path3069"
   d="M 483.885,388.823 345.73,281.28 c -14.479,-11.915 -35.439,-11.642 -49.602,0.646 L 195.84,362.785 c -2.386,1.141 -4.597,1.461 -6.248,0.283 -6.584,-4.705 -32.618,-87.191 -37.636,-103.499 -0.503,-1.633 -0.667,-3.244 -0.577,-4.823 l 101.372,-49.355 c 11.498,-5.596 18.605,-17.457 18.119,-30.233 -0.482,-12.777 -8.471,-24.065 -20.357,-28.774 L 119.719,94.567 c -0.503,-0.199 -1.009,-0.384 -1.516,-0.556 -0.169,-0.059 -0.34,-0.107 -0.511,-0.162 -0.339,-0.109 -0.676,-0.218 -1.015,-0.315 -0.202,-0.058 -0.406,-0.107 -0.608,-0.161 -0.309,-0.082 -0.615,-0.165 -0.924,-0.237 -0.217,-0.05 -0.434,-0.093 -0.651,-0.139 -0.295,-0.063 -0.592,-0.126 -0.887,-0.18 -0.224,-0.041 -0.448,-0.075 -0.672,-0.11 -0.289,-0.047 -0.579,-0.094 -0.869,-0.132 -0.228,-0.031 -0.457,-0.055 -0.685,-0.081 -0.285,-0.031 -0.57,-0.062 -0.854,-0.086 -0.231,-0.02 -0.465,-0.034 -0.696,-0.048 -0.28,-0.018 -0.562,-0.033 -0.841,-0.043 -0.233,-0.008 -0.468,-0.013 -0.701,-0.016 -0.147,-0.002 -0.296,-0.01 -0.445,-0.01 -0.082,0 -0.164,0.008 -0.245,0.009 -0.709,0.005 -1.414,0.028 -2.116,0.08 -0.058,0.004 -0.113,0.012 -0.17,0.017 -0.659,0.052 -1.315,0.128 -1.969,0.221 -0.16,0.023 -0.322,0.045 -0.482,0.07 -0.691,0.108 -1.379,0.234 -2.059,0.388 -0.088,0.02 -0.173,0.043 -0.26,0.063 -0.616,0.144 -1.228,0.307 -1.834,0.486 -0.146,0.043 -0.295,0.085 -0.442,0.132 -0.664,0.207 -1.322,0.431 -1.97,0.68 -0.105,0.041 -0.208,0.086 -0.313,0.127 -0.574,0.227 -1.142,0.471 -1.702,0.73 -0.131,0.061 -0.263,0.119 -0.393,0.181 -0.626,0.3 -1.242,0.619 -1.848,0.958 -0.113,0.064 -0.227,0.132 -0.34,0.198 -0.531,0.307 -1.055,0.628 -1.568,0.965 -0.109,0.072 -0.222,0.14 -0.331,0.214 -0.576,0.387 -1.14,0.795 -1.692,1.221 -0.117,0.09 -0.23,0.184 -0.347,0.275 -0.483,0.385 -0.959,0.782 -1.422,1.196 -0.087,0.077 -0.177,0.151 -0.263,0.229 -0.517,0.471 -1.018,0.963 -1.505,1.47 -0.11,0.115 -0.219,0.232 -0.328,0.35 -0.436,0.467 -0.86,0.946 -1.269,1.441 -0.06,0.072 -0.122,0.141 -0.182,0.213 -0.448,0.551 -0.875,1.123 -1.288,1.708 -0.098,0.139 -0.195,0.279 -0.291,0.42 -0.382,0.559 -0.752,1.13 -1.102,1.718 -0.028,0.05 -0.062,0.097 -0.092,0.147 -0.367,0.628 -0.711,1.276 -1.039,1.936 -0.08,0.16 -0.158,0.321 -0.236,0.484 -0.321,0.673 -0.63,1.357 -0.909,2.062 -6.566,16.568 1.545,35.318 18.112,41.881 l 49.672,19.679 c -4.159,1.391 -9.677,3.234 -15.84,5.293 L 91.99,164.562 C 81.305,160.329 72.909,152.19 68.348,141.643 63.785,131.096 63.606,119.403 67.839,108.721 74.378,92.208 90.082,81.537 107.844,81.537 h 0.002 c 5.427,0 10.754,1.02 15.834,3.032 l 36.318,14.388 C 148.512,71.636 121.498,52.45 90.002,52.45 c -41.916,0 -75.897,33.98 -75.897,75.898 0,33.815 22.122,62.441 52.679,72.25 -20.039,6.755 -56.589,25.539 -21.753,129.59 32.08,95.831 62.902,121.388 91.854,128.19 3.842,1.288 52.445,1.17 52.445,1.17 9.252,0 15.158,-2.513 22.147,-8.576 l 110.492,-89.712 113.076,86.909 c 16.389,13.484 40.607,11.134 54.094,-5.254 13.487,-16.388 11.132,-40.606 -5.254,-54.092 z m -325.199,-209.406 -0.392,0.19 c -0.058,-0.139 -0.115,-0.278 -0.174,-0.415 l 0.566,0.225 z"
   inkscape:connector-curvature="0"
   style="fill:#2196f3;fill-opacity:1" />

</g>
      <g
         id="_x32_5">
</g>
      <g
         id="_x32_6">
</g>
      <g
         id="_x32_7">
</g>
      <g
         id="_x32_8">
</g>
      <g
         id="_x32_9">
</g>
      <g
         id="_x33_0">
</g>
      <g
         id="_x33_1">
</g>
      <g
         id="_x33_2">
</g>
      <g
         id="_x33_3">
</g>
      <g
         id="_x33_4">
</g>
      <g
         id="_x33_5">
</g>
      <g
         id="_x33_6">
</g>
      <g
         id="_x33_7">
</g>
      <g
         id="_x33_8">
</g>
      <g
         id="_x33_9">
</g>
      <g
         id="_x34_0">
</g>
      <g
         id="_x34_1">
</g>
      <g
         id="_x34_2">
</g>
      <g
         id="_x34_3">
</g>
      <g
         id="_x34_4">
</g>
      <g
         id="_x34_5">
</g>
      <g
         id="_x34_6">
</g>
      <g
         id="_x34_7">
</g>
      <g
         id="_x34_8">
</g>
      <g
         id="_x34_9">
</g>
      <g
         id="_x35_0">
</g>
      <g
         id="_x35_1">
</g>
      <g
         id="_x35_2">
</g>
      <g
         id="_x35_3">
</g>
      <g
         id="_x35_4">
</g>
      <g
         id="_x35_5">
</g>
      <g
         id="_x35_6">
</g>
      <g
         id="_x35_7">
</g>
      <g
         id="_x35_8">
</g>
      <g
         id="_x35_9">
</g>
      <g
         id="_x36_0">
</g>
      <g
         id="_x36_1">
</g>
      <g
         id="_x36_2">
</g>
      <g
         id="_x36_3">
</g>
      <g
         id="_x36_4">
</g>
      <g
         id="_x36_5">
</g>
      <g
         id="_x36_6">
</g>
      <g
         id="_x36_7">
</g>
      <g
         id="_x36_8">
</g>
      <g
         id="_x36_9">
</g>
      <g
         id="_x37_0">
</g>
    </g>
  </g>
</svg>
